<mxfile host="app.diagrams.net" modified="2022-11-22T05:23:15.212Z" agent="5.0 (Windows NT 10.0; Win64; x64) AppleWebKit/537.36 (KHTML, like Gecko) Chrome/107.0.0.0 Safari/537.36" etag="els1oJU9mOJaS11X60tT" version="20.5.3" type="github">
  <diagram id="drSriBwEtBuBaEH2uDZP" name="第 1 页">
    <mxGraphModel dx="1422" dy="754" grid="1" gridSize="10" guides="1" tooltips="1" connect="1" arrows="1" fold="1" page="1" pageScale="1" pageWidth="827" pageHeight="1169" math="0" shadow="0">
      <root>
        <mxCell id="0" />
        <mxCell id="1" parent="0" />
        <mxCell id="vyeFdOWSgo_I_-8cbHMQ-1" value="高级语言" style="rounded=0;whiteSpace=wrap;html=1;" vertex="1" parent="1">
          <mxGeometry x="150" y="160" width="120" height="60" as="geometry" />
        </mxCell>
        <mxCell id="vyeFdOWSgo_I_-8cbHMQ-2" value="汇编语言" style="rounded=0;whiteSpace=wrap;html=1;" vertex="1" parent="1">
          <mxGeometry x="150" y="270" width="120" height="60" as="geometry" />
        </mxCell>
        <mxCell id="vyeFdOWSgo_I_-8cbHMQ-3" value="操作系统" style="rounded=0;whiteSpace=wrap;html=1;" vertex="1" parent="1">
          <mxGeometry x="150" y="370" width="120" height="60" as="geometry" />
        </mxCell>
        <mxCell id="vyeFdOWSgo_I_-8cbHMQ-4" value="机器语言" style="rounded=0;whiteSpace=wrap;html=1;" vertex="1" parent="1">
          <mxGeometry x="150" y="470" width="120" height="60" as="geometry" />
        </mxCell>
        <mxCell id="vyeFdOWSgo_I_-8cbHMQ-6" value="微指令系统" style="rounded=0;whiteSpace=wrap;html=1;" vertex="1" parent="1">
          <mxGeometry x="150" y="570" width="120" height="60" as="geometry" />
        </mxCell>
        <mxCell id="vyeFdOWSgo_I_-8cbHMQ-7" value="" style="endArrow=classic;html=1;rounded=0;" edge="1" parent="1">
          <mxGeometry width="50" height="50" relative="1" as="geometry">
            <mxPoint x="209.5" y="220" as="sourcePoint" />
            <mxPoint x="209.5" y="270" as="targetPoint" />
          </mxGeometry>
        </mxCell>
        <mxCell id="vyeFdOWSgo_I_-8cbHMQ-8" value="" style="endArrow=classic;html=1;rounded=0;" edge="1" parent="1">
          <mxGeometry width="50" height="50" relative="1" as="geometry">
            <mxPoint x="209.5" y="330" as="sourcePoint" />
            <mxPoint x="209.5" y="370" as="targetPoint" />
          </mxGeometry>
        </mxCell>
        <mxCell id="vyeFdOWSgo_I_-8cbHMQ-10" value="" style="endArrow=classic;html=1;rounded=0;" edge="1" parent="1">
          <mxGeometry width="50" height="50" relative="1" as="geometry">
            <mxPoint x="209.5" y="530" as="sourcePoint" />
            <mxPoint x="209.5" y="570" as="targetPoint" />
          </mxGeometry>
        </mxCell>
        <mxCell id="vyeFdOWSgo_I_-8cbHMQ-11" value="" style="endArrow=classic;html=1;rounded=0;" edge="1" parent="1">
          <mxGeometry width="50" height="50" relative="1" as="geometry">
            <mxPoint x="209.5" y="430" as="sourcePoint" />
            <mxPoint x="209.5" y="470" as="targetPoint" />
          </mxGeometry>
        </mxCell>
        <mxCell id="vyeFdOWSgo_I_-8cbHMQ-12" value="由硬件直接执行微指令" style="text;html=1;align=center;verticalAlign=middle;resizable=0;points=[];autosize=1;strokeColor=none;fillColor=none;" vertex="1" parent="1">
          <mxGeometry x="290" y="585" width="140" height="30" as="geometry" />
        </mxCell>
        <mxCell id="vyeFdOWSgo_I_-8cbHMQ-13" value="" style="endArrow=none;dashed=1;html=1;dashPattern=1 3;strokeWidth=2;rounded=0;" edge="1" parent="1">
          <mxGeometry width="50" height="50" relative="1" as="geometry">
            <mxPoint x="40" y="450" as="sourcePoint" />
            <mxPoint x="410" y="450" as="targetPoint" />
          </mxGeometry>
        </mxCell>
        <mxCell id="vyeFdOWSgo_I_-8cbHMQ-14" value="&lt;font style=&quot;font-size: 23px;&quot;&gt;软件&lt;/font&gt;" style="text;html=1;align=center;verticalAlign=middle;resizable=0;points=[];autosize=1;strokeColor=none;fillColor=none;" vertex="1" parent="1">
          <mxGeometry x="325" y="400" width="70" height="40" as="geometry" />
        </mxCell>
        <mxCell id="vyeFdOWSgo_I_-8cbHMQ-15" value="&lt;font style=&quot;font-size: 23px;&quot;&gt;硬件&lt;/font&gt;" style="text;html=1;align=center;verticalAlign=middle;resizable=0;points=[];autosize=1;strokeColor=none;fillColor=none;strokeWidth=7;" vertex="1" parent="1">
          <mxGeometry x="325" y="450" width="70" height="40" as="geometry" />
        </mxCell>
      </root>
    </mxGraphModel>
  </diagram>
</mxfile>
